<?xml version="1.0" encoding="utf-8"?>
<!-- Generator: Adobe Illustrator 22.0.1, SVG Export Plug-In . SVG Version: 6.00 Build 0)  -->
<svg version="1.1" id="Layer_1" xmlns="http://www.w3.org/2000/svg" xmlns:xlink="http://www.w3.org/1999/xlink" x="0px" y="0px"
	 viewBox="0 0 492 492" style="enable-background:new 0 0 492 492;" xml:space="preserve">
<path d="M484.1,218.4L306.5,48.8c-5.1-4.8-11.8-7.5-19-7.5c-7.2,0-14,2.7-19,7.5l-16.1,15.4c-5.1,4.8-7.9,11.3-7.9,18.2
	c0,6.9,2.8,13.6,7.9,18.4L355.9,200H26.6C11.7,200,0,211,0,225.2V247c0,14.2,11.7,26.4,26.6,26.4h330.5l-104.8,99.7
	c-5.1,4.8-7.9,11.1-7.9,18c0,6.9,2.8,13.2,7.9,18.1l16.1,15.4c5.1,4.8,11.8,7.5,19,7.5c7.2,0,14-2.7,19-7.5l177.7-169.6
	c5.1-4.9,7.9-11.3,7.9-18.2C492,229.8,489.2,223.3,484.1,218.4z"/>
</svg>
