<?xml version="1.0" encoding="utf-8"?>
<!-- Generator: Adobe Illustrator 22.0.1, SVG Export Plug-In . SVG Version: 6.00 Build 0)  -->
<svg version="1.1" id="Layer_1" xmlns="http://www.w3.org/2000/svg" xmlns:xlink="http://www.w3.org/1999/xlink" x="0px" y="0px"
	 viewBox="0 0 808.4 947.2" style="enable-background:new 0 0 808.4 947.2;" xml:space="preserve">
<style type="text/css">
	.st0{fill:#264DE4;}
	.st1{fill:#2965F1;}
	.st2{fill:#EBEBEB;}
	.st3{fill:#FFFFFF;}
</style>
<g id="layer1">
	<g id="g3013">
		<path id="polygon2989" class="st0" d="M707,173.4l-53.2,570.2l-240,63.4l-239.1-63.4l-53.5-570.2H707z"/>
		<path id="polygon2991" class="st1" d="M624,712.3l44.6-496.2H434.4v548.2L624,712.3z"/>
		<path id="polygon2993" class="st2" d="M218.4,418.5l7.3,74h180v-74H218.4z"/>
		<path id="polygon2995" class="st2" d="M405.7,268.6H203.9l7.3,74h194.6V268.6z"/>
		<path id="polygon2997" class="st2" d="M405.7,687.6v-77h-0.3l-89.7-22.2l-5.7-59.1h-80.8l11.3,116.4l164.8,41.9H405.7z"/>
		<path id="path2999" d="M229.8,4.6h104.8v40.1h-61.1v40.1h61.1V125H229.8C229.8,125,229.8,4.6,229.8,4.6z"/>
		<path id="path3001" d="M357.3,4.6h104.8v34.8h-61.1v7.1h61.1v80.3H357.3V90.2h61.1v-7.1h-61.1V4.6z"/>
		<path id="path3003" d="M479.7,4.6h104.8v34.8h-61.1v7.1h61.1v80.3H479.7V90.2h61.1v-7.1h-61.1V4.6z"/>
		<path id="polygon3005" class="st3" d="M504.6,492.5l-9.2,95.9l-90,22.2v77l165.1-41.9l1.4-12.6l18.9-194.8l1.9-19.7l14.6-149.9
			H405.4v74h113.5l-7.3,76H405.4v74L504.6,492.5z"/>
	</g>
</g>
</svg>
