<?xml version="1.0" encoding="utf-8"?>
<!-- Generator: Adobe Illustrator 22.0.1, SVG Export Plug-In . SVG Version: 6.00 Build 0)  -->
<svg version="1.1" id="Capa_1" xmlns="http://www.w3.org/2000/svg" xmlns:xlink="http://www.w3.org/1999/xlink" x="0px" y="0px"
	 viewBox="0 0 363.9 370.9" style="enable-background:new 0 0 363.9 370.9;" xml:space="preserve">
<g>
	<g>
		<path d="M57.2,190.3c0,20.9,5.3,40.6,14.6,57.9l97.6-56.1l-99-56.9C61.9,151.8,57.2,170.5,57.2,190.3z M88.1,220.6
			c-3.1,1.5-6.4,2.4-9.7,3.2c-1.5,0.4-5.4,1-6-1.2c-0.6-2.2,3.2-3.6,4.7-4c2.4-0.6,4.7-1.2,6.9-2.3c1.8-0.8,5.4-1.6,7.1,0
			C92.7,218.1,89.2,220,88.1,220.6z M130.4,182.6c4.6,0,8.4,3.7,8.4,8.3c0,4.6-3.7,8.3-8.4,8.3c-4.6,0-8.4-3.7-8.4-8.3
			C122,186.3,125.8,182.6,130.4,182.6z M107.3,195.1c0,6.9-5.6,12.5-12.6,12.5c-6.9,0-12.6-5.6-12.6-12.5c0-6.9,5.6-12.5,12.6-12.5
			C101.6,182.6,107.3,188.2,107.3,195.1z M82.1,151.9c4.6,0,8.4,3.7,8.4,8.3c0,4.6-3.7,8.3-8.4,8.3c-4.6,0-8.4-3.7-8.4-8.3
			C73.7,155.6,77.5,151.9,82.1,151.9z M66.5,188c-7.2,0,1-5.2,4.4-5.2C78.1,182.8,69.9,188,66.5,188z"/>
		<path d="M174.9,61.6v-22c-52.2,1.9-97.7,30.1-123.5,71.6l19.2,11C92.5,87.2,130.9,63.4,174.9,61.6z"/>
		<path d="M301.3,105.7l19.2-11C294.7,53.1,249.2,24.9,197,23v22C241,46.9,279.3,70.7,301.3,105.7z"/>
		<path d="M308.1,271.4l-19.2-11c-22.2,33.9-59.9,56.8-103,58.6v22C237.2,339.2,282.1,311.9,308.1,271.4z"/>
		<path d="M295.7,131.8c9,17.6,14.2,37.4,14.2,58.5c0,21.9-5.5,42.6-15.3,60.6l19.2,11c11.6-21.3,18.2-45.8,18.2-71.7
			c0-25.1-6.2-48.7-17.1-69.5L295.7,131.8z"/>
		<path d="M66.3,250.9C56.5,232.8,51,212.2,51,190.3c0-21,5.1-40.9,14.2-58.5l-19.2-11c-10.9,20.8-17.1,44.4-17.1,69.5
			c0,25.9,6.6,50.3,18.2,71.7L66.3,250.9z"/>
		<path d="M174.9,341v-22c-43.1-1.8-80.8-24.7-103-58.6l-19.2,11C78.7,311.9,123.6,339.2,174.9,341z"/>
		<path d="M174.9,67.8c-41.9,1.8-78.3,24.5-99.1,57.8l99.1,57V67.8z M113.8,129c-6.9,0-12.6-5.6-12.6-12.5c0-6.9,5.6-12.5,12.6-12.5
			c6.9,0,12.6,5.6,12.6,12.5C126.4,123.4,120.7,129,113.8,129z M151.3,151.9c-4.6,0-8.4-3.7-8.4-8.3c0-4.6,3.7-8.3,8.4-8.3
			c4.6,0,8.4,3.7,8.4,8.3C159.7,148.1,155.9,151.9,151.3,151.9z M151,120.9c-1.6-2-3.4-3-5.8-3.6c-2.4-0.7-2.9-3.2-1.3-5
			c1.8-2.1,5-2.7,7.6-2c3.8,1,7,3,9.4,6C164.2,120.4,154,124.5,151,120.9z M155.2,101.1c-4.6,0-8.4-3.7-8.4-8.3
			c0-4.6,3.8-8.3,8.4-8.3c4.6,0,8.4,3.7,8.4,8.3C163.6,97.4,159.8,101.1,155.2,101.1z"/>
		<path d="M303.6,190.3c0-19.8-4.7-38.5-13.1-55.1l-99,56.9l97.6,56.1C298.3,230.9,303.6,211.2,303.6,190.3z M286.9,154.7
			c7.2,0-1.3,4.8-4.5,4.8C275.3,159.5,283.7,154.7,286.9,154.7z M234.7,200c-4.6,0-8.4-3.7-8.4-8.3c0-4.6,3.7-8.3,8.4-8.3
			c4.6,0,8.4,3.7,8.4,8.3C243,196.3,239.3,200,234.7,200z M257.7,183.2c5.2,0-4.7,4.3-6.9,4.3C245.5,187.5,255.5,183.2,257.7,183.2z
			 M252.8,210.6c-7.2,0-0.2-6.4,4.1-6.4C264.2,204.2,257.1,210.6,252.8,210.6z M274.9,231.5c-4.6,0-8.4-3.7-8.4-8.3
			c0-4.6,3.8-8.3,8.4-8.3c4.6,0,8.4,3.7,8.4,8.3C283.3,227.8,279.5,231.5,274.9,231.5z M279.1,198.6c-6.9,0-12.6-5.6-12.6-12.5
			c0-6.9,5.6-12.5,12.6-12.5c6.9,0,12.6,5.6,12.6,12.5C291.7,193,286.1,198.6,279.1,198.6z"/>
		<path d="M174.9,312.8V201.7l-97.4,56C98.5,289.5,134.1,311,174.9,312.8z M157.2,303.9c-7.2,0,0.6-5.5,4.3-5.5
			C168.7,298.4,160.9,303.9,157.2,303.9z M155.2,231.5c4.6,0,8.4,3.7,8.4,8.3c0,4.6-3.8,8.3-8.4,8.3c-4.6,0-8.4-3.7-8.4-8.3
			C146.8,235.2,150.6,231.5,155.2,231.5z M133.7,251c7.2,0,0.3,6.6-4,6.6C122.4,257.6,129.3,251,133.7,251z M138.7,262
			c7,0,12.6,5.6,12.6,12.5c0,6.9-5.6,12.5-12.6,12.5c-6.9,0-12.6-5.6-12.6-12.5C126.2,267.6,131.8,262,138.7,262z M103.1,252.4
			c4.6,0,8.4,3.7,8.4,8.3c0,4.6-3.8,8.3-8.4,8.3c-4.6,0-8.4-3.7-8.4-8.3C94.7,256.1,98.4,252.4,103.1,252.4z"/>
		<path d="M283.4,257.6l-97.4-56v111.1C226.7,311,262.3,289.5,283.4,257.6z M203.9,295.3c-4.6,0-8.4-3.7-8.4-8.3
			c0-4.6,3.7-8.3,8.4-8.3c4.6,0,8.4,3.7,8.4,8.3C212.3,291.6,208.6,295.3,203.9,295.3z M209.6,260.7c-6.9,0-12.6-5.6-12.6-12.5
			c0-6.9,5.6-12.5,12.6-12.5c6.9,0,12.6,5.6,12.6,12.5S216.6,260.7,209.6,260.7z M222.3,279.1c-5.2,0,4.8-4.2,7-4.2
			C234.5,274.9,224.5,279.1,222.3,279.1z M254,270.3c-4.6,0-8.4-3.7-8.4-8.3c0-4.6,3.8-8.3,8.4-8.3c4.6,0,8.4,3.7,8.4,8.3
			C262.3,266.6,258.6,270.3,254,270.3z"/>
		<path d="M197,51.2V166l99.1-57C275.3,75.7,238.9,53.1,197,51.2z M229.1,67.8c4.6,0,8.4,3.7,8.4,8.3s-3.7,8.3-8.4,8.3
			c-4.6,0-8.4-3.7-8.4-8.3C220.7,71.5,224.5,67.8,229.1,67.8z M211.2,60c7.2,0,0.6,6.9-3.9,6.9C200,66.9,206.6,60,211.2,60z
			 M216.5,137.7c-6.9,0-12.6-5.6-12.6-12.5s5.6-12.5,12.6-12.5c6.9,0,12.6,5.6,12.6,12.5S223.5,137.7,216.5,137.7z M229.4,100.5
			c-2.1,1.7-5.4,2.1-7.7,0.6c-2.4-1.6-5.3-2-8.1-2.6c-2.3-0.5-4.5-2.3-3.4-4.8c1.1-2.4,4.4-3.9,6.9-3.4c4.4,0.9,8.9,1.7,12.7,4.3
			C232.2,96.2,231.2,99.1,229.4,100.5z M236.3,120c-7.2,0-0.8-7.1,3.9-7.1C247.5,112.9,241,120,236.3,120z M254,108.5
			c-4.6,0-8.4-3.7-8.4-8.3c0-4.6,3.8-8.3,8.4-8.3c4.6,0,8.4,3.7,8.4,8.3S258.6,108.5,254,108.5z M268.7,104.8c-5.2,0,4.8-4.2,7-4.2
			C280.9,100.6,270.9,104.8,268.7,104.8z"/>
	</g>
</g>
</svg>
