<svg xmlns="http://www.w3.org/2000/svg" viewBox="0 0 261.4 268.8" enable-background="new 0 0 261.4 268.8"><style type="text/css">.st0{fill:url(#path8615_1_);} .st1{fill:url(#path8620_1_);}</style><g id="layer1"><g id="g1894" transform="translate(-473.361 -251.725) translate(428.423 184.256)"><linearGradient id="path8615_1_" x1="119.682" x2="243.916" y1="313.744" y2="189.095" gradientUnits="userSpaceOnUse" gradientTransform="matrix(1 0 0 -1 -44.938 413.469)"><stop offset="0" stop-color="#387EB8"/><stop offset="1" stop-color="#366994"/></linearGradient><path id="path8615" d="M176 76.1c-62.7 0-58.8 28.1-58.8 28.1l.1 29.2h59.9v8.8H93.4s-40.1-4.7-40.1 60.8 35 63.2 35 63.2h20.9v-30.4s-1.1-36.3 34.5-36.3 59.4 0 59.4 0 33.4.6 33.4-33.4 0-56.1 0-56.1 5-33.9-60.5-33.9zm-33 19.6c6 0 10.8 5 10.8 11.1S148.9 118 143 118s-10.8-5-10.8-11.1S137 95.7 143 95.7z" class="st0"/><linearGradient id="path8620_1_" x1="196.23" x2="329.585" y1="232.323" y2="104.562" gradientUnits="userSpaceOnUse" gradientTransform="matrix(1 0 0 -1 -44.938 413.469)"><stop offset="0" stop-color="#FFE052"/><stop offset="1" stop-color="#FFC331"/></linearGradient><path id="path8620" d="M177.8 330.5c62.7 0 58.8-28.1 58.8-28.1l-.1-29.2h-59.9v-8.8h83.7s40.1 4.7 40.1-60.8-35-63.2-35-63.2h-20.9v30.4s1.1 36.3-34.5 36.3-59.4 0-59.4 0-33.4-.6-33.4 33.4 0 56.1 0 56.1-5 33.9 60.6 33.9zm33-19.6c-6 0-10.8-5-10.8-11.1 0-6.2 4.8-11.1 10.8-11.1 6 0 10.8 5 10.8 11.1-.1 6.1-4.9 11.1-10.8 11.1z" class="st1"/></g></g></svg>