<?xml version="1.0" encoding="utf-8"?>
<!-- Generator: Adobe Illustrator 22.0.1, SVG Export Plug-In . SVG Version: 6.00 Build 0)  -->
<svg version="1.1" id="Layer_1" xmlns="http://www.w3.org/2000/svg" xmlns:xlink="http://www.w3.org/1999/xlink" x="0px" y="0px"
	 viewBox="0 0 256 321" style="enable-background:new 0 0 256 321;" xml:space="preserve">
<g>
	<g transform="translate(0.000000,511.000000) scale(0.100000,-0.100000)">
		<path d="M486.8,4808.8c-113.2-33.7-204.1-139.7-220.2-258c-7.4-56.2-7.4-1985.3,0-2041.5c12.6-91.1,78.3-188.8,157.3-232
			c72-39,28.6-37.3,832-37.3c645,0,731.4,1.2,762.8,9.5c100.6,26.6,181.3,107.1,219.6,219.5c8.6,26,9.7,98.8,10.9,877.5
			c1.7,803,1.1,850.3-8,868.1c-8.6,15.4-434,444.4-567.3,571.6l-35.4,33.7l-558.7-0.6C568.6,4819.4,518.3,4818.2,486.8,4808.8z
			 M1536.2,4537.7c0-152.1,6.3-194.7,34.9-255.6c24-49.7,82.4-111.3,129.2-136.1c63.5-33.1,85.8-36.1,251.6-36.1h150.4v-791.7
			c0-878.7,2.3-821.3-38.3-870.5c-10.9-13.6-33.2-32-49.7-40.8l-29.2-16l-717.1-1.8c-623.3-1.2-721.7,0-746.8,7.7
			c-37.8,11.2-77.2,46.8-96.7,87l-14.9,30.8V3530v1015.4l14.9,30.8c18.3,37.9,58.9,75.7,93.2,86.4c21.7,7.1,112.1,8.9,522.7,8.9
			l495.8,0.6V4537.7z"/>
		<path d="M841.4,4492.2c-31.4-15.4-72-52.7-85.2-79.3c-14.3-29-21.2-69.8-15.4-94.7c4-19.5,2.8-24.3-6.9-30.2
			c-9.2-6.5-10.3-11.8-7.4-32c2.3-13.6,10.9-40.8,20-60.4c9.2-19.5,20.6-46.2,24.6-58.6c4-12.4,17.1-34.3,29.2-48.5
			c28-32.5,61.2-46.2,106.4-42.6c55.5,4.1,93.2,37.3,110.4,96.5c4,13,13.7,30.2,22.3,38.5c18.3,18.3,33.7,78.1,24,93.5
			c-2.8,5.9-4.6,33.1-2.8,63.9c2.8,61.6-6.3,91.7-32.6,105.3c-8,4.7-21.2,15.4-29.2,24.3C963.8,4507.6,894.6,4518.2,841.4,4492.2z"
			/>
		<path d="M723.6,4016.4c-29.7-15.4-65.8-33.1-80.1-39.6c-27.5-13.6-48-40.2-56-73.4c-2.8-11.8-7.4-52.7-9.2-90.5l-4-69.8h321.4
			h321.4l-2.3,78.7c-1.7,70.4-3.4,82.2-16.6,108.3c-16,32.5-23.5,36.7-183.6,113.6c-2.3,1.2-18.9-46.2-36.6-104.7
			c-18.3-59.2-34.9-107.1-36.6-107.1c-1.7,0-9.2,16-15.4,34.9l-12,34.9l13.7,28.4c16.6,34.3,17.1,40.2,2.3,55.6
			c-21.7,22.5-74.3,9.5-74.3-18.9c0-6.5,5.7-23.7,12.6-37.9c12-25.4,12-26,1.7-61.6c-5.7-20.1-12-37.3-14.3-38.5
			c-2.3-1.2-8.6,13-13.7,31.4c-37.7,126.6-56.6,184.6-60,184C780.2,4044.2,753.9,4031.8,723.6,4016.4z"/>
		<path d="M630.4,3601c-34.9-11.2-58.9-49.7-52.6-85.2c5.1-27.8,36-55,67.5-59.8c13.7-1.8,300.2-2.9,636.5-1.8
			c681.6,1.8,637-1.2,657,42.6c11.4,25.5,11.4,40.8,0,66.3c-20,43.8,26.3,40.8-668.5,42C927.2,3605.7,639.5,3604,630.4,3601z"/>
		<path d="M617.8,3293.9c-18.9-8.9-25.7-16.6-33.7-37.9c-12-33.1-5.1-60.9,20.6-84l17.7-14.8H1260c590.7,0,638.8,0.6,654.2,10.1
			c17.7,10.7,33.7,39.6,33.7,60.9c0,20.1-16.6,51.5-33.2,63.3c-14.9,10.1-48.6,10.6-644.5,11.8
			C664.7,3305.1,640.1,3304.6,617.8,3293.9z"/>
		<path d="M617.2,2993.9c-46.9-23.7-53.2-88.2-12.6-123.7l17.7-14.8h639.9h639.9l20.6,19.5c37.2,34.9,29.2,95.3-14.9,117.8
			c-18.9,10.1-61.2,10.7-646.2,10.7C703,3003.4,633.8,3002.2,617.2,2993.9z"/>
		<path d="M609.8,2690.9c-42.3-21.3-50.3-76.9-17.1-115.4l16-18.9l372.3-1.8l372.3-1.2l20.6,19.5c38.9,36.7,29.2,99.4-17.7,120.1
			c-16.6,7.1-78.3,8.3-372.8,8.3C658.4,2701.6,628.1,2701,609.8,2690.9z"/>
	</g>
</g>
</svg>
